<?xml version="1.0" standalone="no"?>
<!DOCTYPE svg PUBLIC "-//W3C//DTD SVG 20010904//EN"
 "http://www.w3.org/TR/2001/REC-SVG-20010904/DTD/svg10.dtd">
<svg version="1.0" xmlns="http://www.w3.org/2000/svg"
 width="792.000000pt" height="792.000000pt" viewBox="0 0 792.000000 792.000000"
 preserveAspectRatio="xMidYMid meet">
<metadata>
Created by potrace 1.11, written by Peter Selinger 2001-2013
</metadata>
<g transform="translate(0.000000,792.000000) scale(0.100000,-0.100000)"
fill="#000000" stroke="none">
<path d="M3809 6476 c-2 -2 -40 -6 -84 -10 -194 -16 -521 -96 -662 -161 -17
-8 -34 -15 -37 -15 -19 0 -315 -152 -386 -198 -79 -52 -220 -152 -247 -177 -6
-5 -25 -21 -42 -34 -17 -13 -28 -28 -24 -34 3 -5 1 -7 -4 -4 -15 9 -56 -29
-47 -44 4 -8 3 -9 -4 -5 -15 9 -146 -120 -136 -135 4 -7 3 -9 -3 -6 -24 15
-280 -320 -268 -351 2 -7 1 -11 -3 -8 -12 7 -44 -52 -36 -66 4 -7 3 -8 -4 -4
-7 4 -21 -13 -37 -45 -15 -29 -21 -48 -13 -44 7 3 4 -1 -6 -9 -11 -9 -14 -16
-7 -16 7 0 9 -5 6 -10 -4 -6 -11 -7 -17 -4 -7 4 -8 2 -4 -4 4 -6 -2 -20 -14
-32 -22 -22 -27 -45 -7 -34 6 4 1 -5 -13 -21 -14 -16 -19 -25 -11 -20 9 5 7
-1 -4 -19 -10 -14 -14 -26 -9 -26 4 0 -1 -7 -12 -16 -10 -8 -12 -12 -4 -8 12
7 13 5 3 -8 -7 -8 -9 -19 -5 -23 4 -5 1 -5 -5 -1 -8 4 -14 2 -15 -6 0 -7 -2
-17 -2 -23 -1 -5 -5 -16 -9 -22 -5 -7 -5 -18 -1 -25 5 -7 3 -8 -6 -3 -10 6
-12 4 -7 -8 3 -10 2 -17 -3 -17 -5 0 -7 -7 -4 -15 4 -8 1 -15 -4 -15 -6 0 -9
-9 -7 -20 2 -11 0 -18 -4 -15 -5 2 -11 -10 -15 -28 -6 -34 -14 -62 -16 -62 -6
0 -42 -182 -46 -225 -1 -25 -3 -45 -4 -45 -4 0 -10 -47 -12 -97 -2 -31 -6 -54
-10 -51 -5 2 -8 -1 -8 -6 0 -6 4 -11 9 -11 5 0 8 -11 7 -24 0 -13 -3 -23 -6
-21 -3 2 -5 -21 -5 -50 0 -29 3 -51 8 -48 4 2 7 -13 8 -34 1 -94 15 -262 30
-373 9 -63 20 -120 55 -285 12 -59 81 -260 120 -351 49 -117 133 -272 206
-384 27 -41 38 -61 23 -45 -40 47 -141 219 -201 343 -53 110 -142 355 -164
457 -7 28 -14 59 -16 70 -16 67 -35 181 -40 235 -3 30 -8 69 -13 85 -4 17 -6
44 -6 62 1 18 -1 30 -6 27 -4 -2 -6 -21 -4 -42 3 -20 7 -66 10 -102 4 -36 8
-76 11 -90 2 -14 7 -41 9 -60 3 -19 10 -55 16 -80 5 -25 11 -54 14 -65 11 -53
47 -179 74 -255 270 -773 916 -1366 1696 -1559 66 -16 136 -32 155 -35 19 -3
44 -8 56 -10 12 -2 45 -7 75 -11 30 -3 65 -8 79 -10 76 -14 411 -22 485 -12
22 3 65 9 95 12 76 9 200 32 273 51 34 9 69 17 77 19 21 4 221 73 245 84 11 5
52 24 90 41 408 183 771 493 1029 880 98 147 149 242 216 400 35 85 46 120 39
132 -7 13 -6 18 2 18 7 0 10 3 7 6 -4 3 2 36 13 72 29 100 67 261 74 312 3 25
8 56 10 70 20 116 28 449 12 580 -9 85 -15 161 -10 133 2 -13 9 -23 14 -23 6
0 7 -9 4 -21 -5 -15 -4 -19 4 -15 7 5 11 -3 11 -21 0 -32 19 -70 21 -43 1 8 1
18 1 21 0 3 -3 30 -6 60 -34 342 -198 762 -420 1074 -114 160 -283 346 -426
469 -62 53 -246 181 -302 210 -21 11 -38 24 -38 29 0 13 80 -35 200 -121 127
-91 202 -152 295 -240 38 -37 61 -56 50 -42 -81 101 -304 282 -481 391 -150
91 -425 219 -529 245 -39 10 -98 34 -93 39 2 2 38 -5 81 -14 53 -13 77 -15 77
-7 0 6 5 4 10 -5 5 -9 22 -20 37 -23 82 -20 473 -222 508 -261 18 -21 74 -56
95 -60 30 -6 15 11 -36 41 -24 14 -41 30 -38 35 3 5 2 9 -3 8 -19 -3 -34 2
-28 10 3 5 0 13 -6 17 -8 5 -9 3 -4 -6 5 -8 3 -11 -6 -8 -8 3 -13 10 -12 16 2
7 -4 9 -14 5 -11 -4 -14 -2 -9 5 8 13 -43 42 -62 35 -7 -3 -11 1 -10 9 2 7 -3
12 -10 10 -13 -2 -202 85 -202 94 0 5 76 -29 134 -60 27 -14 51 -24 54 -22 5
6 -221 115 -303 146 -33 12 -69 26 -80 31 -95 37 -345 99 -460 113 -225 27
-271 29 -302 11 -24 -15 -25 -15 -9 -1 19 15 19 16 -8 16 -19 0 -25 -4 -20
-12 6 -10 4 -10 -7 -2 -19 14 -148 18 -182 5 -18 -7 -26 -7 -22 -1 6 10 2 14
-6 6z m85 -18 c-3 -4 -11 -5 -19 -1 -21 7 -19 12 4 10 11 0 18 -5 15 -9z m43
6 c-3 -3 -12 -4 -19 -1 -8 3 -5 6 6 6 11 1 17 -2 13 -5z m208 -12 c-3 -3 -11
0 -18 7 -9 10 -8 11 6 5 10 -3 15 -9 12 -12z m-219 -40 c-3 -2 -31 -6 -63 -8
-105 -6 -177 -14 -281 -30 -57 -9 -105 -14 -108 -12 -6 7 186 39 266 45 36 3
66 6 67 7 5 4 123 2 119 -2z m118 -18 c3 -8 2 -12 -4 -9 -6 3 -10 10 -10 16 0
14 7 11 14 -7z m-584 -38 c0 -2 -7 -6 -15 -10 -8 -3 -15 -1 -15 4 0 6 7 10 15
10 8 0 15 -2 15 -4z m-43 -12 c-3 -3 -12 -4 -19 -1 -8 3 -5 6 6 6 11 1 17 -2
13 -5z m-38 -8 c-2 -2 -17 -6 -34 -10 -22 -5 -26 -4 -15 4 14 9 59 15 49 6z
m-172 -52 c-3 -3 -12 -4 -19 -1 -8 3 -5 6 6 6 11 1 17 -2 13 -5z m-152 -54
c-3 -5 -14 -10 -23 -9 -14 0 -13 2 3 9 27 11 27 11 20 0z m-45 -15 c0 -5 -49
-31 -87 -46 -41 -15 -21 0 34 26 57 28 53 26 53 20z m-130 -66 c-25 -17 -76
-42 -68 -34 13 14 62 44 73 44 6 0 3 -4 -5 -10z m2415 -47 c-3 -3 -11 0 -18 7
-9 10 -8 11 6 5 10 -3 15 -9 12 -12z m-2538 -22 c-62 -39 -76 -39 -17 0 25 16
49 30 54 30 6 0 -11 -13 -37 -30z m-67 -34 c0 -3 -35 -28 -77 -57 -43 -28
-113 -80 -155 -115 -43 -35 -80 -64 -84 -64 -12 0 154 132 235 187 81 55 81
55 81 49z m-445 -368 c-127 -132 -132 -137 -101 -98 31 39 177 190 185 190 2
0 -35 -42 -84 -92z m-125 -142 c0 -2 -8 -10 -17 -17 -16 -13 -17 -12 -4 4 13
16 21 21 21 13z m-30 -39 c0 -2 -10 -12 -22 -23 l-23 -19 19 23 c18 21 26 27
26 19z m-285 -317 c-9 -16 -18 -30 -21 -30 -2 0 2 14 11 30 9 17 18 30 21 30
2 0 -2 -13 -11 -30z m4464 -490 c0 -10 -3 -8 -9 5 -12 27 -12 43 0 25 5 -8 9
-22 9 -30z m21 -24 c0 -3 -4 -8 -10 -11 -5 -3 -10 -1 -10 4 0 6 5 11 10 11 6
0 10 -2 10 -4z m62 -288 c-8 -8 -9 -4 -5 13 4 13 8 18 11 10 2 -7 -1 -18 -6
-23z m-159 -1343 c-3 -9 -8 -14 -10 -11 -3 3 -2 9 2 15 9 16 15 13 8 -4z m-40
-90 c-3 -9 -8 -14 -10 -11 -3 3 -2 9 2 15 9 16 15 13 8 -4z m-4138 -448 c16
-23 45 -60 65 -82 19 -22 24 -31 11 -20 -30 26 -124 145 -114 145 5 0 21 -19
38 -43z m285 -305 c0 -6 -132 113 -165 149 -16 18 14 -7 68 -56 53 -49 97 -91
97 -93z"/>
<path d="M1491 3914 c0 -11 3 -14 6 -6 3 7 2 16 -1 19 -3 4 -6 -2 -5 -13z"/>
<path d="M1490 3880 c0 -5 5 -10 10 -10 6 0 10 5 10 10 0 6 -4 10 -10 10 -5 0
-10 -4 -10 -10z"/>
</g>
</svg>
